<?xml version="1.0" encoding="UTF-8" standalone="no"?>
<svg
   xmlns:dc="http://purl.org/dc/elements/1.1/"
   xmlns:cc="http://creativecommons.org/ns#"
   xmlns:rdf="http://www.w3.org/1999/02/22-rdf-syntax-ns#"
   xmlns:svg="http://www.w3.org/2000/svg"
   xmlns="http://www.w3.org/2000/svg"
   xmlns:sodipodi="http://sodipodi.sourceforge.net/DTD/sodipodi-0.dtd"
   xmlns:inkscape="http://www.inkscape.org/namespaces/inkscape"
   version="1.1"
   viewBox="0 0 544.28821 290.83231"
   stroke-miterlimit="10"
   id="svg23"
   sodipodi:docname="logo.svg"
   width="544.28821"
   height="290.83231"
   style="fill:none;stroke:none;stroke-linecap:square;stroke-miterlimit:10"
   inkscape:version="0.92.3 (2405546, 2018-03-11)">
  <metadata
     id="metadata29">
    <rdf:RDF>
      <cc:Work
         rdf:about="">
        <dc:format>image/svg+xml</dc:format>
        <dc:type
           rdf:resource="http://purl.org/dc/dcmitype/StillImage" />
        <dc:title></dc:title>
      </cc:Work>
    </rdf:RDF>
  </metadata>
  <defs
     id="defs27" />
  <sodipodi:namedview
     pagecolor="#ffffff"
     bordercolor="#666666"
     borderopacity="1"
     objecttolerance="10"
     gridtolerance="10"
     guidetolerance="10"
     inkscape:pageopacity="0"
     inkscape:pageshadow="2"
     inkscape:window-width="2349"
     inkscape:window-height="1431"
     id="namedview25"
     showgrid="false"
     fit-margin-top="0"
     fit-margin-left="0"
     fit-margin-right="0"
     fit-margin-bottom="0"
     inkscape:zoom="1.7481481"
     inkscape:cx="303.61441"
     inkscape:cy="73.932922"
     inkscape:window-x="502"
     inkscape:window-y="504"
     inkscape:window-maximized="0"
     inkscape:current-layer="svg23" />
  <clipPath
     id="g7511364732_0_0.0">
    <path
       d="M 0,0 H 960 V 540 H 0 Z"
       id="path2"
       inkscape:connector-curvature="0"
       style="clip-rule:nonzero" />
  </clipPath>
  <path
     style="fill:#000000;fill-opacity:0;fill-rule:evenodd;image-rendering:auto"
     inkscape:connector-curvature="0"
     id="path7"
     d="M 8.888469,146.88845 H 703.03017 V 459.26641 H 8.888469 Z" />
  <path
     style="fill:#002f4a;fill-rule:nonzero;image-rendering:auto"
     inkscape:connector-curvature="0"
     id="path9"
     d="M 32.109374,173.66046 H 0 V 3.660456 H 32.109374 Z M 130.1574,161.48858 q -11.84375,14.39063 -32.765626,14.39063 -19.25,0 -29.375,-11.0625 -10.125,-11.07813 -10.34375,-32.4375 V 53.910456 h 31.98438 v 77.359374 q 0,18.70313 17.031246,18.70313 16.28125,0 22.35937,-11.28125 V 53.910456 h 32.09375 V 173.66046 h -30.09375 z m 85.11134,-107.578124 0.98437,13.39062 q 12.73438,-15.59375 34.42188,-15.59375 23.14062,0 31.76562,18.25 12.625,-18.25 35.96875,-18.25 19.48438,0 29,11.34375 9.51563,11.34375 9.51563,34.14063 V 173.66046 H 324.83124 V 97.301076 q 0,-10.1875 -3.98438,-14.89062 -3.98437,-4.70313 -14.0625,-4.70313 -14.375,0 -19.92187,13.71875 l 0.10937,82.234384 H 255.00311 V 97.410456 q 0,-10.40625 -4.10937,-15.04688 -4.09375,-4.65625 -13.9375,-4.65625 -13.60938,0 -19.70313,11.28125 V 173.66046 H 185.26875 V 53.910456 Z M 415.25583,173.66046 H 383.14645 V 53.910456 h 32.10938 z M 381.27145,22.926076 q 0,-7.1875 4.8125,-11.82813 4.8125,-4.65625 13.10938,-4.65625 8.20312,0 13.0625,4.65625 4.875,4.64063 4.875,11.82813 0,7.29687 -4.92188,11.95312 -4.92187,4.64063 -13.01562,4.64063 -8.07813,0 -13,-4.64063 -4.92188,-4.65625 -4.92188,-11.95312 z m 89.75113,30.98438 1,13.84375 q 12.84375,-16.04688 34.42188,-16.04688 19.03125,0 28.32812,11.17188 9.29688,11.17187 9.51563,33.42187 V 173.66045 H 512.30383 V 97.082326 q 0,-10.1875 -4.42187,-14.78125 -4.42188,-4.59375 -14.71875,-4.59375 -13.5,0 -20.25,11.51562 V 173.66045 H 440.92883 V 53.910456 Z" />
  <path
     style="fill:#000000;fill-opacity:0;fill-rule:evenodd;image-rendering:auto"
     inkscape:connector-curvature="0"
     id="path11"
     d="M 3.85099,366.58405 H 669.86674 V 603.49743 H 3.85099 Z" />
  <path
     style="fill:#626b73;fill-rule:nonzero;image-rendering:auto"
     inkscape:connector-curvature="0"
     id="path13"
     d="m 32.181274,225.83231 q 1.51563,0 3.125,0.0937 1.625,0.0781 3.09375,0.28125 1.48438,0.20312 2.73438,0.5 1.25,0.28125 2.0625,0.625 l -1.45313,10.48437 q -3.125,-0.6875 -5.9375,-1 -2.8125,-0.32812 -5.875,-0.32812 -7.531255,0 -12.20313,3.42187 -4.65625,3.42188 -6.859375,9.5625 v 40.20318 H 0.087519 v -62.6875 h 10.203125 l 0.515625,9.96875 q 3.828125,-5.15625 9.1875,-8.14063 5.359375,-2.98437 12.187505,-2.98437 z m 27.11159,31.92187 q 0,-6.78125 1.96874,-12.59375 1.98438,-5.82812 5.65625,-10.10937 3.67188,-4.29688 8.9375,-6.75 5.28125,-2.46875 11.89063,-2.46875 6.65625,0 11.95312,2.46875 5.312496,2.45312 8.984376,6.75 3.6875,4.28125 5.65625,10.10937 1.96875,5.8125 1.96875,12.59375 v 1.26563 q 0,6.78125 -1.96875,12.57812 -1.96875,5.79688 -5.65625,10.09375 -3.67188,4.28125 -8.953126,6.71875 -5.26562,2.42188 -11.875,2.42188 -6.65625,0 -11.96875,-2.42188 -5.29687,-2.4375 -8.96875,-6.71875 -3.67187,-4.29687 -5.65625,-10.09375 -1.96874,-5.79687 -1.96874,-12.57812 z m 10.71874,1.26563 q 0,4.64062 1.09375,8.84375 1.10937,4.20312 3.34375,7.39062 2.23437,3.1875 5.59375,5.04688 3.35937,1.84375 7.8125,1.84375 4.40625,0 7.73437,-1.84375 3.34375,-1.85938 5.562496,-5.04688 2.23438,-3.1875 3.32813,-7.39062 1.10937,-4.20313 1.10937,-8.84375 v -1.26563 q 0,-4.57812 -1.14062,-8.78125 -1.125,-4.20312 -3.35938,-7.39062 -2.218746,-3.1875 -5.546866,-5.0625 -3.32813,-1.89063 -7.79688,-1.89063 -4.46875,0 -7.76562,1.89063 -3.29688,1.875 -5.53125,5.0625 -2.23438,3.1875 -3.34375,7.39062 -1.09375,4.20313 -1.09375,8.78125 z m 116.627206,0 q 0,6.73437 -1.625,12.5625 -1.60938,5.8125 -4.75,10.10937 -3.125,4.28125 -7.73438,6.71875 -4.59375,2.42188 -10.5625,2.42188 -6.03125,0 -10.46875,-2.14063 -4.42187,-2.14062 -7.54687,-6.14062 l -0.53125,7.125 h -9.84375 v -89 h 10.71875 v 33.03125 q 3.0625,-3.82813 7.40625,-5.84375 4.35937,-2.03125 10.14062,-2.03125 6.03125,0 10.65625,2.375 4.64063,2.375 7.76563,6.60937 3.14062,4.21875 4.75,10.10938 1.625,5.875 1.625,12.89062 z m -10.71875,-1.20313 q 0,-4.57812 -0.89063,-8.71875 -0.89062,-4.15625 -2.875,-7.3125 -1.96875,-3.15625 -5.15625,-5 -3.1875,-1.85937 -7.8125,-1.85937 -2.78125,0 -5.10937,0.73437 -2.3125,0.71875 -4.14063,2.01563 -1.8125,1.29687 -3.23437,3.07812 -1.42188,1.76563 -2.40625,3.84375 v 27.40625 q 1.04687,2.09375 2.45312,3.85938 1.42188,1.76562 3.28125,3.09375 1.85938,1.32812 4.17188,2.0625 2.3125,0.71875 5.09375,0.71875 4.40625,0 7.5625,-1.82813 3.15625,-1.82812 5.15625,-4.95312 2,-3.125 2.95312,-7.23438 0.95313,-4.125 0.95313,-8.70312 z m 25.78346,-0.0625 q 0,-6.78125 1.96875,-12.59375 1.98438,-5.82812 5.65625,-10.10937 3.67188,-4.29688 8.9375,-6.75 5.28125,-2.46875 11.89066,-2.46875 6.65625,0 11.95312,2.46875 5.3125,2.45312 8.98438,6.75 3.6875,4.28125 5.65625,10.10937 1.96875,5.8125 1.96875,12.59375 v 1.26563 q 0,6.78125 -1.96875,12.57812 -1.96875,5.79688 -5.65625,10.09375 -3.67188,4.28125 -8.95313,6.71875 -5.26562,2.42188 -11.875,2.42188 -6.65628,0 -11.96878,-2.42188 -5.29687,-2.4375 -8.96875,-6.71875 -3.67187,-4.29687 -5.65625,-10.09375 -1.96875,-5.79687 -1.96875,-12.57812 z m 10.71875,1.26563 q 0,4.64062 1.09375,8.84375 1.10938,4.20312 3.34375,7.39062 2.23438,3.1875 5.59375,5.04688 3.35938,1.84375 7.81253,1.84375 4.40625,0 7.73438,-1.84375 3.34375,-1.85938 5.5625,-5.04688 2.23437,-3.1875 3.32812,-7.39062 1.10938,-4.20313 1.10938,-8.84375 v -1.26563 q 0,-4.57812 -1.14063,-8.78125 -1.125,-4.20312 -3.35937,-7.39062 -2.21875,-3.1875 -5.54688,-5.0625 -3.32812,-1.89063 -7.79687,-1.89063 -4.46878,0 -7.76566,1.89063 -3.29687,1.875 -5.53125,5.0625 -2.23437,3.1875 -3.34375,7.39062 -1.09375,4.20313 -1.09375,8.78125 z m 88.87723,-47.21875 v 15.1875 h 23.875 v 8.28125 h -23.875 v 34.0625 q 0,3.65625 0.92188,6.03125 0.9375,2.375 2.5625,3.79687 1.625,1.42188 3.73437,2 2.10938,0.57813 4.48438,0.57813 1.75,0 3.59375,-0.20313 1.85937,-0.20312 3.625,-0.48437 1.76562,-0.29688 3.29687,-0.60938 1.54688,-0.32812 2.53125,-0.5625 l 1.5,7.59375 q -1.32812,0.8125 -3.25,1.42188 -1.90625,0.60937 -4.17187,1.03125 -2.25,0.4375 -4.78125,0.67187 -2.51563,0.23438 -5,0.23438 -4.17188,0 -7.79688,-1.1875 -3.625,-1.1875 -6.29687,-3.76563 -2.65625,-2.57812 -4.1875,-6.65625 -1.53125,-4.09375 -1.53125,-9.89062 v -34.0625 h -16.45313 v -8.28125 h 16.45313 v -15.1875 z m 47.51783,15.1875 h 32.03125 v 53.42187 h 20.45312 v 9.26563 h -52.48437 v -9.26563 h 21.3125 v -44.09375 h -21.3125 z m 19.92187,-16.45313 q 0,-2.67187 1.59375,-4.48437 1.59375,-1.82813 4.84375,-1.82813 3.1875,0 4.79688,1.82813 1.625,1.8125 1.625,4.48437 0,2.60938 -1.625,4.34375 -1.60938,1.73438 -4.79688,1.73438 -3.25,0 -4.84375,-1.73438 -1.59375,-1.73437 -1.59375,-4.34375 z m 76.3147,71.60938 q 2.89063,0 5.64063,-0.92188 2.75,-0.9375 4.89062,-2.57812 2.15625,-1.65625 3.45313,-3.89063 1.29687,-2.23437 1.35937,-4.82812 h 10.14063 q -0.0625,4.17187 -2.17188,7.96875 -2.10937,3.78125 -5.65625,6.65625 -3.53125,2.85937 -8.10937,4.57812 -4.57813,1.70313 -9.54688,1.70313 -7.125,0 -12.46875,-2.54688 -5.32812,-2.54687 -8.89062,-6.85937 -3.5625,-4.32813 -5.35938,-9.96875 -1.79687,-5.65625 -1.79687,-11.90625 v -2.4375 q 0,-6.20313 1.79687,-11.875 1.79688,-5.67188 5.35938,-9.98438 3.5625,-4.32812 8.89062,-6.875 5.34375,-2.54687 12.46875,-2.54687 5.5625,0 10.21875,1.76562 4.67188,1.76563 8.04688,4.8125 3.39062,3.03125 5.29687,7.20313 1.92188,4.17187 1.92188,8.92187 h -10.14063 q -0.0625,-2.82812 -1.25,-5.34375 -1.1875,-2.53125 -3.21875,-4.4375 -2.01562,-1.92187 -4.82812,-3.01562 -2.8125,-1.10938 -6.04688,-1.10938 -4.98437,0 -8.375,2 -3.39062,2 -5.48437,5.21875 -2.07813,3.21875 -2.98438,7.21875 -0.89062,4 -0.89062,8.04688 v 2.4375 q 0,4.10937 0.89062,8.14062 0.90625,4.03125 2.95313,7.25 2.0625,3.20313 5.45312,5.20313 3.39063,2 8.4375,2 z m 86.14282,-9.09375 q 0,-1.92188 -0.75,-3.45313 -0.75,-1.53125 -2.54687,-2.79687 -1.79688,-1.28125 -4.75,-2.34375 -2.95313,-1.07813 -7.35938,-1.95313 -5.39062,-1.10937 -9.82812,-2.67187 -4.42188,-1.5625 -7.57813,-3.73438 -3.15625,-2.17187 -4.90625,-5.09375 -1.73437,-2.92187 -1.73437,-6.8125 0,-3.82812 1.79687,-7.15625 1.79688,-3.32812 5.03125,-5.8125 3.25,-2.5 7.73438,-3.9375 4.5,-1.45312 9.89062,-1.45312 5.79688,0 10.42188,1.51562 4.64062,1.5 7.875,4.17188 3.25,2.65625 5.01562,6.21875 1.76563,3.5625 1.76563,7.67187 H 530.5561 q 0,-2.03125 -1.04688,-3.96875 -1.03125,-1.9375 -2.89062,-3.4375 -1.84375,-1.51562 -4.48438,-2.4375 -2.64062,-0.9375 -5.9375,-0.9375 -3.42187,0 -6,0.76563 -2.57812,0.75 -4.29687,2.03125 -1.70313,1.26562 -2.57813,2.95312 -0.85937,1.67188 -0.85937,3.46875 0,1.85938 0.6875,3.3125 0.70312,1.4375 2.40625,2.59375 1.71875,1.15625 4.57812,2.09375 2.875,0.92188 7.28125,1.79688 5.79688,1.20312 10.35938,2.79687 4.57812,1.59375 7.70312,3.82813 3.14063,2.23437 4.78125,5.1875 1.65625,2.95312 1.65625,6.84375 0,4.17187 -1.89062,7.59375 -1.875,3.40625 -5.23438,5.84375 -3.35937,2.4375 -8.0625,3.76562 -4.6875,1.32813 -10.25,1.32813 -6.35937,0 -11.34375,-1.70313 -4.98437,-1.71875 -8.4375,-4.51562 -3.4375,-2.8125 -5.26562,-6.51563 -1.82813,-3.71875 -1.82813,-7.71875 h 10.71875 q 0.23438,3.3125 1.76563,5.57813 1.53125,2.25 3.8125,3.64062 2.29687,1.39063 5.07812,1.96875 2.78125,0.57813 5.5,0.57813 6.78125,0 10.71875,-2.48438 3.95313,-2.5 4,-6.60937 z" />
  <path
     style="fill:#ffffff;fill-rule:evenodd;image-rendering:auto"
     inkscape:connector-curvature="0"
     id="path15"
     d="m 372.85435,0 h 57.5433 v 52.53543 h -57.5433 z" />
  <path
     style="fill:#480031;fill-rule:evenodd;image-rendering:auto"
     inkscape:connector-curvature="0"
     id="path19"
     d="m 375.94992,16.926076 h 13.32153 V 3.604526 h 18.61676 v 13.32155 h 13.32154 v 17.95533 h -13.32154 v 13.32155 h -18.61676 v -13.32155 h -13.32153 z" />
</svg>
